<?xml version="1.0" encoding="UTF-8"?>
<svg id="Layer_2" data-name="Layer 2" xmlns="http://www.w3.org/2000/svg" viewBox="0 0 778.5 131.5">
  <defs>
    <style>
      .cls-1 {
        fill: #f8ffff;
      }
    </style>
  </defs>
  <g id="Layer_1-2" data-name="Layer 1">
    <g>
      <g>
        <path class="cls-1" d="M126.67,84.5c-9.11,4.41-18.52,7.3-28.57,8.83-3.92.6-7.3.57-11.1.79-11.46.66-22.59.36-33.66-1.9C33.65,88.2,12.35,78.53.11,62.01c-.07,1.24-.11,2.48-.11,3.74,0,15.38,5.28,29.53,14.13,40.73,9.05,4.77,20.94,7.18,30.83,7.83.76.05,13.45-.23,18.35-.69,5.11-.48,9.89-1.53,14.9-2.75,11.01-2.7,22.38-7.53,32.16-13.61,4.66-2.9,9.19-6.02,13.46-9.42.3-.04-.24.55-.46.81-4.11,4.89-9.63,9.81-14.89,13.46-16.35,11.38-39.52,19.49-59.58,19.88-1.3.03-15.28-.48-19.07-1.14,10.32,6.74,22.66,10.67,35.91,10.67,30.23,0,55.69-20.4,63.37-48.18l-2.45,1.19Z"/>
        <path class="cls-1" d="M45.47,37.57c19.39,23.16,50.36,37.37,79.75,37.72.08,0,.16,0,.25,0l5.41-.44c.41-2.97.63-6.01.63-9.09C131.5,29.44,102.06,0,65.75,0c-12.41,0-24.02,3.44-33.93,9.42,0,0,0,0,0,.01,1.37,9.88,5.69,18.63,13.66,28.14Z"/>
        <path class="cls-1" d="M22.23,69.42c20.3,15.11,47.52,20.39,72.44,19.56,1.51-.05,7.81-.36,9.93-.75,5.25-.98,10.4-1.9,15.61-3.21,3.34-.83,6.18-1.78,9.23-2.9.55-2.16,1-4.37,1.33-6.61-.9.23-1.8.46-2.7.64-2.5.5-4.91.72-7.36,1.01-17.2,2-35.49-2.2-51.3-9.38-19.74-8.96-42.55-27.04-45.95-49.77l-.34-2.31C13.86,23.59,6.82,34.01,3.06,45.88c3.48,8.68,10.11,16.8,19.17,23.54Z"/>
      </g>
      <path class="cls-1" d="M329.55,82.15l-13.06-10.08h.42c3.76,0,7.05-1.18,9.75-3.51,2.76-2.37,4.21-5.46,4.33-9.17.17-3.91-1.12-7.41-3.85-10.4-2.75-3.01-6.09-4.54-9.92-4.54h-55.14c-.72,0-1.38.25-1.9.72-.57.51-.87,1.19-.87,1.97v3.01c0,1.5.53,2.78,1.57,3.82,1.04,1.04,2.32,1.57,3.82,1.57h52.92c.44,0,1.11.1,1.9.98.64.72.96,1.47.98,2.28.02.78-.23,1.41-.78,1.98-.55.57-1.17.83-1.94.83h-53.08c-1.5,0-2.78.53-3.82,1.57-1.04,1.04-1.57,2.32-1.57,3.82v18.83c0,.75.28,1.43.81,1.96.53.53,1.21.82,1.96.82h2.37c1.5,0,2.78-.53,3.82-1.57,1.04-1.04,1.57-2.32,1.57-3.82v-11.15h27.29c1.48,0,2.77.44,3.95,1.36l17.19,13.31c1.67,1.24,3.58,1.86,5.68,1.86h3.48c1.02,0,1.94-.4,2.66-1.16.75-.8,1.06-1.81.9-2.85-.09-.99-.59-1.83-1.44-2.44Z"/>
      <path class="cls-1" d="M391.94,44.46h-29.43c-5.8,0-10.82,2.08-14.93,6.19-4.11,4.11-6.19,9.13-6.19,14.93v1.9c0,5.8,2.08,10.82,6.19,14.93,4.11,4.11,9.13,6.19,14.93,6.19h29.43c5.8,0,10.82-2.08,14.93-6.19s6.19-9.13,6.19-14.93v-1.9c0-5.8-2.08-10.82-6.19-14.93-4.11-4.11-9.14-6.19-14.93-6.19ZM392.58,77.52h-30.69c-2.79,0-5.1-.96-7.05-2.94-1.96-1.98-2.91-4.3-2.91-7.1v-1.9c0-2.8.95-5.12,2.91-7.1,1.95-1.98,4.26-2.94,7.05-2.94h30.69c2.79,0,5.12.96,7.1,2.94,1.98,1.98,2.94,4.3,2.94,7.1v1.9c0,2.8-.96,5.12-2.94,7.1-1.98,1.98-4.3,2.94-7.1,2.94Z"/>
      <path class="cls-1" d="M492.87,44.46h-47.86c-5.8,0-10.82,2.08-14.93,6.19-4.11,4.11-6.19,9.13-6.19,14.93v1.9c0,5.8,2.08,10.82,6.19,14.93,4.11,4.11,9.13,6.19,14.93,6.19h47.86c.78,0,1.46-.3,1.97-.87.47-.52.72-1.18.72-1.91v-3.01c0-1.44-.53-2.7-1.57-3.74-1.04-1.04-2.3-1.56-3.74-1.56h-45.88c-2.79,0-5.1-.96-7.05-2.94-1.96-1.98-2.91-4.3-2.91-7.1v-1.9c0-2.8.95-5.12,2.91-7.1,1.95-1.98,4.26-2.94,7.05-2.94h45.88c1.44,0,2.7-.53,3.74-1.57,1.04-1.04,1.57-2.32,1.57-3.82v-3.01c0-.75-.27-1.41-.77-1.92-.51-.51-1.17-.78-1.92-.78Z"/>
      <path class="cls-1" d="M574.76,44.46h-63.6c-1.5,0-2.78.53-3.82,1.57-1.04,1.04-1.57,2.3-1.57,3.74v3.08c0,.7.28,1.35.81,1.88.53.53,1.21.82,1.96.82h27.84v30.29c0,.75.28,1.43.81,1.96.53.53,1.18.82,1.88.82h2.45c1.43,0,2.7-.52,3.76-1.55,1.08-1.04,1.62-2.33,1.62-3.84v-27.68h25.23c1.44,0,2.7-.53,3.74-1.57,1.04-1.04,1.57-2.32,1.57-3.82v-3.01c0-.75-.27-1.41-.77-1.92-.51-.51-1.17-.77-1.92-.77Z"/>
      <path class="cls-1" d="M657.06,44.46h-47.86c-5.8,0-10.82,2.08-14.93,6.19-4.11,4.11-6.19,9.13-6.19,14.93v1.9c0,5.8,2.08,10.82,6.19,14.93,4.11,4.11,9.13,6.19,14.93,6.19h47.86c.78,0,1.46-.3,1.97-.87.47-.52.72-1.18.72-1.91v-3.01c0-1.44-.53-2.7-1.57-3.74-1.04-1.04-2.3-1.56-3.74-1.56h-45.88c-2.79,0-5.1-.96-7.05-2.94-.95-.96-1.66-2-2.14-3.14h46.31c1.66,0,3.14-.48,4.39-1.44,1.36-1.03,2.08-2.4,2.08-3.95v-2.37c0-.83-.39-1.57-1.11-2.08-.58-.41-1.26-.62-2.03-.62h-49.34c.46-.9,1.08-1.74,1.84-2.51,1.95-1.98,4.26-2.94,7.05-2.94h45.88c1.44,0,2.7-.53,3.74-1.57,1.04-1.04,1.57-2.32,1.57-3.82v-3.01c0-.75-.27-1.41-.77-1.92-.51-.51-1.17-.78-1.92-.78Z"/>
      <path class="cls-1" d="M740.06,82.17l-20.37-15.64,20.39-15.73c.87-.69,1.33-1.66,1.33-2.78,0-1.03-.38-1.92-1.09-2.59-.69-.64-1.54-.98-2.48-.98h-3.56c-2.04,0-3.93.63-5.62,1.88l-18.91,14.63-29.5.02v-11.23c0-1.44-.53-2.7-1.57-3.74-1.04-1.04-2.33-1.56-3.82-1.56h-2.37c-.72,0-1.38.25-1.9.72-.57.51-.87,1.19-.87,1.97v38.68c0,.75.28,1.43.81,1.96.53.53,1.21.82,1.96.82h2.37c1.49,0,2.78-.53,3.82-1.57,1.04-1.04,1.57-2.32,1.57-3.82v-11.15l29.5.02,18.9,14.55c1.67,1.3,3.59,1.96,5.7,1.96h3.48c1.03,0,1.92-.38,2.58-1.08.64-.68.98-1.54.98-2.48,0-1.17-.46-2.16-1.35-2.87Z"/>
      <path class="cls-1" d="M235.41,44.46h-55.14c-.72,0-1.38.25-1.9.72-.57.51-.87,1.19-.87,1.97v3.01c0,1.5.53,2.78,1.57,3.82,1.04,1.04,2.32,1.57,3.82,1.57h53.08c.43,0,1.08.1,1.83.99.63.74.93,1.53.93,2.4,0,.73-.26,1.33-.81,1.88s-1.17.81-1.96.81l-52.45.29c-1.5,0-3.4.23-4.44,1.27-1.04,1.04-1.57,2.32-1.57,3.82v18.83c0,.75.28,1.43.81,1.96.53.53,1.21.82,1.96.82h2.37c1.5,0,2.78-.53,3.82-1.57,1.04-1.04,1.57-2.32,1.57-3.82v-11.15h47.38c3.78,0,7.05-1.25,9.71-3.7,2.69-2.49,4.06-5.66,4.06-9.44s-1.35-7.24-4.02-10.11c-2.7-2.9-5.98-4.37-9.75-4.37Z"/>
      <path class="cls-1" d="M778.5,80.42v.78c0,4.28-3.48,7.75-7.76,7.75h-4.55c-4.28,0-7.76-3.48-7.76-7.75v-.78c0-4.28,3.48-7.76,7.76-7.76h4.55c4.28,0,7.76,3.48,7.76,7.76ZM775.92,80.42c0-2.71-2.21-4.92-4.92-4.92h-5.06c-2.71,0-4.92,2.21-4.92,4.92v.79c0,2.71,2.21,4.92,4.92,4.92h5.06c2.71,0,4.92-2.21,4.92-4.92v-.79ZM773.8,83.77c.03.22-.04.44-.18.6s-.35.26-.57.26h-.54c-.36,0-.72-.12-1.01-.34l-2.67-2.06c-.14-.11-.31-.17-.49-.17h-2.65v1.53c0,.57-.47,1.04-1.04,1.04h-.37c-.35,0-.63-.28-.63-.63v-6.01c0-.35.28-.63.63-.63h7.18c.61,0,1.2.25,1.64.71.47.49.73,1.15.71,1.82-.04,1.08-.83,1.93-1.91,2.12l1.61,1.24c.17.13.27.31.3.51ZM771.76,79.62c0-.29-.24-.53-.53-.53h-5.37c-.1,0-.18.08-.18.18v.7c0,.1.08.18.18.18h5.37s0,0,0,0h0c.29,0,.53-.24.53-.53Z"/>
    </g>
  </g>
</svg>